<svg version="1.1" viewBox="0.0 0.0 453.54330708661416 453.54330708661416" fill="none" stroke="none" stroke-linecap="square" stroke-miterlimit="10" xmlns:xlink="http://www.w3.org/1999/xlink" xmlns="http://www.w3.org/2000/svg"><clipPath id="p.0"><path d="m0 0l453.5433 0l0 453.5433l-453.5433 0l0 -453.5433z" clip-rule="nonzero"/></clipPath><g clip-path="url(#p.0)"><path fill="#000000" fill-opacity="0.0" d="m0 0l453.5433 0l0 453.5433l-453.5433 0z" fill-rule="evenodd"/><path fill="#000000" fill-opacity="0.0" d="m278.37796 100.543304l0 304.0" fill-rule="evenodd"/><path stroke="#073763" stroke-width="8.0" stroke-linejoin="round" stroke-linecap="butt" d="m278.37796 100.543304l0 273.68" fill-rule="evenodd"/><path fill="#073763" stroke="#073763" stroke-width="8.0" stroke-linecap="butt" d="m278.37796 400.5433c-7.2680664 0 -13.160004 -5.8919373 -13.160004 -13.160004c0 -7.2680664 5.8919373 -13.160004 13.160004 -13.160004c7.2680664 0 13.160004 5.8919373 13.160004 13.160004c0 7.2680664 -5.8919373 13.160004 -13.160004 13.160004z" fill-rule="nonzero"/><path fill="#5b0f00" d="m214.31921 200.20132l54.769073 14.674576l-29.349167 109.53816l-54.769073 -14.674591z" fill-rule="evenodd"/><path stroke="#ff9900" stroke-width="4.0" stroke-linejoin="round" stroke-linecap="butt" d="m214.31921 200.20132l54.769073 14.674576l-29.349167 109.53816l-54.769073 -14.674591z" fill-rule="evenodd"/><path fill="#5b0f00" d="m373.2265 234.10413c-43.37372 25.170288 -94.97351 32.068176 -143.43567 19.174591c-48.462128 -12.893585 -89.81203 -44.52121 -114.94327 -87.91759l48.70906 -28.207855l0 0c17.645645 30.470322 46.67906 52.677338 80.70627 61.730453c34.027206 9.053101 70.25749 4.2098083 100.71193 -13.463257z" fill-rule="evenodd"/><path stroke="#ff9900" stroke-width="4.0" stroke-linejoin="round" stroke-linecap="butt" d="m373.2265 234.10413c-43.37372 25.170288 -94.97351 32.068176 -143.43567 19.174591c-48.462128 -12.893585 -89.81203 -44.52121 -114.94327 -87.91759l48.70906 -28.207855l0 0c17.645645 30.470322 46.67906 52.677338 80.70627 61.730453c34.027206 9.053101 70.25749 4.2098083 100.71193 -13.463257z" fill-rule="evenodd"/><path fill="#5b0f00" d="m278.37762 70.65938l132.28345 229.11494l-49.09607 28.346466l-132.28345 -229.11496z" fill-rule="evenodd"/><path stroke="#ff9900" stroke-width="4.0" stroke-linejoin="round" stroke-linecap="butt" d="m278.37762 70.65938l132.28345 229.11494l-49.09607 28.346466l-132.28345 -229.11496z" fill-rule="evenodd"/><path fill="#5b0f00" d="m278.37762 70.65938l28.346436 49.09606l-229.11496 132.28348l-28.346455 -49.09607z" fill-rule="evenodd"/><path stroke="#ff9900" stroke-width="4.0" stroke-linejoin="round" stroke-linecap="butt" d="m278.37762 70.65938l28.346436 49.09606l-229.11496 132.28348l-28.346455 -49.09607z" fill-rule="evenodd"/><path fill="#5b0f00" d="m420.65097 315.8265c-65.11459 37.786743 -142.58636 48.118195 -215.32758 28.715515c-72.74121 -19.402649 -134.77588 -66.945404 -172.42119 -132.14186l48.569763 -28.04483l0 0c30.196808 52.29669 79.95729 90.43263 138.30594 105.99626c58.348648 15.56366 120.49184 7.2763977 172.72285 -23.033844z" fill-rule="evenodd"/><path stroke="#ff9900" stroke-width="4.0" stroke-linejoin="round" stroke-linecap="butt" d="m420.65097 315.8265c-65.11459 37.786743 -142.58636 48.118195 -215.32758 28.715515c-72.74121 -19.402649 -134.77588 -66.945404 -172.42119 -132.14186l48.569763 -28.04483l0 0c30.196808 52.29669 79.95729 90.43263 138.30594 105.99626c58.348648 15.56366 120.49184 7.2763977 172.72285 -23.033844z" fill-rule="evenodd"/><path fill="#000000" fill-opacity="0.0" d="m420.1099 316.13968l0 0c-135.24063 78.08353 -308.16156 32.075043 -386.71652 -102.89229l244.98425 -142.58801z" fill-rule="evenodd"/><path stroke="#ff9900" stroke-width="4.0" stroke-linejoin="round" stroke-linecap="butt" d="m420.1099 316.13968l0 0c-135.24063 78.08353 -308.16156 32.075043 -386.71652 -102.89229l244.98425 -142.58801z" fill-rule="evenodd"/><path fill="#5b0f00" d="m226.74927 56.826305l18.897644 32.73071l-16.365356 9.448822l-18.897644 -32.730713z" fill-rule="evenodd"/><path stroke="#ff9900" stroke-width="4.0" stroke-linejoin="round" stroke-linecap="butt" d="m226.74927 56.826305l18.897644 32.73071l-16.365356 9.448822l-18.897644 -32.730713z" fill-rule="evenodd"/><path fill="#5b0f00" d="m62.66164 151.56512l18.89764 32.730713l-16.365356 9.448807l-18.89764 -32.730698z" fill-rule="evenodd"/><path stroke="#ff9900" stroke-width="4.0" stroke-linejoin="round" stroke-linecap="butt" d="m62.66164 151.56512l18.89764 32.730713l-16.365356 9.448807l-18.89764 -32.730698z" fill-rule="evenodd"/></g></svg>